<svg width="400" height="342" viewBox="0 0 400 342" fill="none" xmlns="http://www.w3.org/2000/svg">
<g clip-path="url(#clip0_12_129)">
<path d="M312.106 333.976L306.401 333.975L303.686 311.967L312.107 311.967L312.106 333.976Z" fill="#FFB6B6"/>
<path d="M312.307 339.928L294.761 339.927V339.705C294.761 337.894 295.48 336.157 296.761 334.876C298.042 333.596 299.779 332.876 301.59 332.876L304.796 330.445L310.776 332.876L312.307 332.877L312.307 339.928Z" fill="#2F2E41"/>
<path d="M371.168 317.901L366.661 321.399L351.022 305.677L357.675 300.514L371.168 317.901Z" fill="#FFB6B6"/>
<path d="M374.977 322.48L361.115 333.237L360.979 333.062C359.869 331.631 359.372 329.818 359.599 328.021C359.825 326.224 360.756 324.59 362.187 323.48L363.229 319.593L369.444 317.848L370.654 316.909L374.977 322.48Z" fill="#2F2E41"/>
<path d="M346.487 211.416C346.487 211.416 346.098 217.375 345.607 225.893C345.526 227.29 346.001 228.808 345.917 230.328C345.86 231.336 345.245 232.316 345.188 233.367C345.128 234.477 345.977 235.459 345.917 236.607C345.858 237.728 344.889 239.013 344.83 240.161C344.201 252.51 341.921 267.294 344.204 271.427C345.33 273.463 362.47 301.68 362.47 301.68C362.47 301.68 354.479 313.667 352.196 309.671C349.18 304.394 325.938 279.703 325.938 274.988C325.938 270.279 320.561 234.985 320.561 234.985L316.812 255.872L315.092 260.01L315.633 262.44L314.522 265.718L314.462 268.963L313.38 274.988C313.38 274.988 316.634 321.933 314.801 323.24C312.963 324.553 304.064 326.91 303.014 324.553C301.969 322.195 297.968 275.559 297.968 275.559C297.968 275.559 296.872 254.188 295.685 234.323C295.616 233.17 294.806 231.777 294.743 230.641C294.669 229.323 295.182 227.61 295.114 226.332C295.04 224.865 294.389 223.832 294.326 222.427C293.841 211.576 293.767 203.025 294.634 201.724C297.254 197.796 299.612 194.657 299.612 194.657C299.612 194.657 337.058 185.49 346.488 197.271L346.487 211.416Z" fill="#2F2E41"/>
<path d="M312.809 99.039L321.838 98.5342L328.642 102.248L347.564 209.4C347.564 209.4 328.221 218.34 316.234 214.915C304.247 211.491 291.623 211.683 291.623 211.683L300.822 109.314L308.243 102.464L312.809 99.039Z" fill="#E6E6E6"/>
<path d="M327.872 101.311L341.847 107.018C343.993 107.123 346.041 107.951 347.656 109.367C349.271 110.784 350.359 112.706 350.743 114.82L349.816 142.42L344.775 155.55L348.369 185.461L346.488 189.229L348.114 193.074C345.727 196.949 346.213 202.027 347.629 207.495H345.917L342.492 206.924C342.492 206.924 334.951 209.542 333.407 200.14C329.363 175.529 327.08 186.374 327.08 186.374L325.089 110.015L327.872 101.311Z" fill="#3F3D56"/>
<path d="M308.813 101.322L295.758 115.009C293.612 115.114 291.565 115.942 289.95 117.359C288.335 118.775 287.246 120.697 286.863 122.811L292.26 165.254L289.727 181.54L291.118 185.233L290.111 189.407L291.689 193.224L290.547 198.362L292.26 205.782L300.822 203.499L300.756 197.413L303.04 114.644L308.813 101.322Z" fill="#3F3D56"/>
<path d="M265.275 171.68L247.492 184.584C246.81 184.62 246.151 184.834 245.578 185.205C245.006 185.577 244.542 186.092 244.232 186.7C243.923 187.308 243.779 187.987 243.815 188.668C243.851 189.349 244.066 190.009 244.438 190.581C244.81 191.152 245.327 191.616 245.935 191.925C246.543 192.234 247.222 192.377 247.903 192.34C248.584 192.303 249.244 192.087 249.815 191.714C250.386 191.341 250.849 190.825 251.158 190.216L275.34 177.306L265.275 171.68Z" fill="#FFB6B6"/>
<path d="M289.976 117.305C286.596 118.864 278.247 158.776 275.796 159.622C273.346 160.469 274.281 160.341 273.937 161.048C273.594 161.754 273.51 164.918 271.158 165.289C268.805 165.66 256.376 176.992 256.376 176.992L259.527 187.494C259.527 187.494 283.445 173.83 290.04 166.263C296.635 158.696 300.186 119.781 300.186 119.781L300.86 115.899C300.86 115.899 293.356 115.746 289.976 117.305Z" fill="#3F3D56"/>
<path d="M343.612 166.41L327.763 181.629C327.093 181.757 326.469 182.06 325.953 182.506C325.437 182.952 325.048 183.527 324.824 184.171C324.601 184.816 324.551 185.508 324.681 186.178C324.81 186.848 325.113 187.472 325.56 187.987C326.007 188.502 326.582 188.891 327.227 189.114C327.871 189.336 328.563 189.385 329.233 189.255C329.903 189.125 330.527 188.821 331.041 188.373C331.556 187.926 331.944 187.351 332.166 186.705L354.352 170.605L343.612 166.41Z" fill="#FFB6B6"/>
<path d="M345.917 120.73C342.782 122.737 354.693 151.851 352.382 153.025C350.07 154.199 350.98 153.945 350.736 154.692C350.492 155.439 350.843 158.584 348.563 159.274C346.284 159.964 335.524 172.891 335.524 172.891L340.083 182.863C340.083 182.863 361.904 166.051 367.401 157.652C372.897 149.253 369.32 146.417 369.32 146.417C362.501 131.934 356.123 108.314 346.488 109.885C346.488 109.885 349.051 118.723 345.917 120.73Z" fill="#3F3D56"/>
<path d="M314.746 96.779C323.196 96.779 330.047 89.9282 330.047 81.4774C330.047 73.0265 323.196 66.1757 314.746 66.1757C306.295 66.1757 299.444 73.0265 299.444 81.4774C299.444 89.9282 306.295 96.779 314.746 96.779Z" fill="#FFB6B6"/>
<path d="M330.241 91.3369C330.241 91.3369 326.871 92.261 324.909 92.7755C325.011 91.3161 325.643 89.9499 325.964 88.5222C326.285 87.0945 326.215 85.4155 325.154 84.4074C324.093 83.3994 321.883 83.7921 321.712 85.2426C320.815 83.3232 319.915 81.4004 319.014 79.474C316.444 84.7638 311.19 80.2559 305.461 81.5926C302.538 82.281 298.876 81.9853 297.332 79.4101C298.199 78.6818 298.93 77.8048 299.49 76.8202C298.6 77.0815 297.673 77.1988 296.746 77.1679C296.767 76.2467 297.009 75.3442 297.452 74.5361C297.895 73.728 298.525 73.0381 299.29 72.5244C300.114 71.9857 298.074 70.0689 298.793 69.3941C300.268 68.017 301.258 68.9521 302.129 67.1369C302.691 66.0144 303.557 65.0721 304.628 64.4174C305.699 63.7626 306.932 63.4216 308.187 63.4333C310.691 63.4919 315.178 63.4678 316.15 65.7748C319.246 63.7478 323.557 64.3205 326.583 66.4468C329.099 68.2074 331.962 73.5289 332.594 76.533C333.226 79.537 331.833 88.7188 330.241 91.3369Z" fill="#2F2E41"/>
<path d="M140.707 57.6546H42.7266C40.9644 57.6773 39.259 57.0315 37.9538 55.8474C36.6485 54.6632 35.8403 53.0286 35.6917 51.2725C35.6282 50.3358 35.7578 49.3961 36.0724 48.5116C36.3871 47.6271 36.8801 46.8167 37.5208 46.1306C38.1616 45.4445 38.9365 44.8973 39.7975 44.5231C40.6585 44.1488 41.5872 43.9555 42.526 43.955H140.707C142.524 43.955 144.266 44.6766 145.551 45.9612C146.835 47.2458 147.557 48.9881 147.557 50.8048C147.557 52.6215 146.835 54.3638 145.551 55.6484C144.266 56.9329 142.524 57.6546 140.707 57.6546Z" fill="#094805"/>
<path d="M197.068 68.7856H35.9617C35.8103 68.7856 35.6651 68.7254 35.558 68.6184C35.451 68.5113 35.3909 68.3661 35.3909 68.2147C35.3909 68.0633 35.451 67.9182 35.558 67.8111C35.6651 67.7041 35.8103 67.6439 35.9617 67.6439H197.068C197.219 67.6439 197.364 67.7041 197.471 67.8111C197.578 67.9182 197.639 68.0633 197.639 68.2147C197.639 68.3661 197.578 68.5113 197.471 68.6184C197.364 68.7254 197.219 68.7856 197.068 68.7856Z" fill="#E6E6E6"/>
<path d="M190.368 57.94H42.5261C40.6337 57.94 38.8189 57.1883 37.4807 55.8502C36.1426 54.5121 35.3909 52.6972 35.3909 50.8048C35.3909 48.9124 36.1426 47.0975 37.4807 45.7594C38.8189 44.4213 40.6337 43.6696 42.5261 43.6696H190.368C192.261 43.6696 194.076 44.4213 195.414 45.7594C196.752 47.0975 197.504 48.9124 197.504 50.8048C197.504 52.6972 196.752 54.5121 195.414 55.8502C194.076 57.1883 192.261 57.94 190.368 57.94ZM42.5261 44.8112C40.9365 44.8112 39.412 45.4427 38.288 46.5667C37.164 47.6907 36.5325 49.2152 36.5325 50.8048C36.5325 52.3944 37.164 53.9189 38.288 55.0429C39.412 56.1669 40.9365 56.7984 42.5261 56.7984H190.368C191.958 56.7984 193.482 56.1669 194.606 55.0429C195.731 53.9189 196.362 52.3944 196.362 50.8048C196.362 49.2152 195.731 47.6907 194.606 46.5667C193.482 45.4427 191.958 44.8112 190.368 44.8112H42.5261Z" fill="#3F3D56"/>
<path d="M96.7538 111.312H42.7266C40.9644 111.334 39.259 110.689 37.9538 109.504C36.6485 108.32 35.8403 106.686 35.6917 104.929C35.6282 103.993 35.7578 103.053 36.0724 102.169C36.3871 101.284 36.8801 100.474 37.5208 99.7876C38.1616 99.1015 38.9365 98.5543 39.7975 98.1801C40.6585 97.8058 41.5872 97.6125 42.526 97.6119H96.7538C98.5705 97.6119 100.313 98.3336 101.597 99.6182C102.882 100.903 103.604 102.645 103.604 104.462C103.604 106.278 102.882 108.021 101.597 109.305C100.313 110.59 98.5705 111.312 96.7538 111.312Z" fill="#094805"/>
<path d="M197.068 122.443H35.9617C35.8103 122.443 35.6651 122.383 35.558 122.275C35.451 122.168 35.3909 122.023 35.3909 121.872C35.3909 121.72 35.451 121.575 35.558 121.468C35.6651 121.361 35.8103 121.301 35.9617 121.301H197.068C197.219 121.301 197.364 121.361 197.471 121.468C197.578 121.575 197.639 121.72 197.639 121.872C197.639 122.023 197.578 122.168 197.471 122.275C197.364 122.383 197.219 122.443 197.068 122.443Z" fill="#E6E6E6"/>
<path d="M190.368 111.597H42.5261C40.6337 111.597 38.8189 110.845 37.4807 109.507C36.1426 108.169 35.3909 106.354 35.3909 104.462C35.3909 102.569 36.1426 100.755 37.4807 99.4164C38.8189 98.0783 40.6337 97.3265 42.5261 97.3265H190.368C192.261 97.3265 194.076 98.0783 195.414 99.4164C196.752 100.755 197.504 102.569 197.504 104.462C197.504 106.354 196.752 108.169 195.414 109.507C194.076 110.845 192.261 111.597 190.368 111.597ZM42.5261 98.4682C40.9365 98.4682 39.412 99.0996 38.288 100.224C37.164 101.348 36.5325 102.872 36.5325 104.462C36.5325 106.051 37.164 107.576 38.288 108.7C39.412 109.824 40.9365 110.455 42.5261 110.455H190.368C191.958 110.455 193.482 109.824 194.606 108.7C195.731 107.576 196.362 106.051 196.362 104.462C196.362 102.872 195.731 101.348 194.606 100.224C193.482 99.0996 191.958 98.4682 190.368 98.4682H42.5261Z" fill="#3F3D56"/>
<path d="M169.248 164.969H42.7266C40.9644 164.991 39.259 164.346 37.9538 163.161C36.6485 161.977 35.8403 160.343 35.6917 158.587C35.6282 157.65 35.7578 156.71 36.0724 155.826C36.3871 154.941 36.8801 154.131 37.5208 153.445C38.1616 152.759 38.9365 152.211 39.7975 151.837C40.6585 151.463 41.5872 151.27 42.526 151.269H169.248C171.065 151.269 172.807 151.991 174.092 153.275C175.376 154.56 176.098 156.302 176.098 158.119C176.098 159.936 175.376 161.678 174.092 162.962C172.807 164.247 171.065 164.969 169.248 164.969Z" fill="#094805"/>
<path d="M197.068 176.1H35.9617C35.8103 176.1 35.6651 176.04 35.558 175.932C35.451 175.825 35.3909 175.68 35.3909 175.529C35.3909 175.377 35.451 175.232 35.558 175.125C35.6651 175.018 35.8103 174.958 35.9617 174.958H197.068C197.219 174.958 197.364 175.018 197.471 175.125C197.578 175.232 197.639 175.377 197.639 175.529C197.639 175.68 197.578 175.825 197.471 175.932C197.364 176.04 197.219 176.1 197.068 176.1Z" fill="#E6E6E6"/>
<path d="M190.368 165.254H42.5261C40.6337 165.254 38.8189 164.502 37.4807 163.164C36.1426 161.826 35.3909 160.011 35.3909 158.119C35.3909 156.227 36.1426 154.412 37.4807 153.074C38.8189 151.735 40.6337 150.984 42.5261 150.984H190.368C192.261 150.984 194.076 151.735 195.414 153.074C196.752 154.412 197.504 156.227 197.504 158.119C197.504 160.011 196.752 161.826 195.414 163.164C194.076 164.502 192.261 165.254 190.368 165.254ZM42.5261 152.125C40.9365 152.125 39.412 152.757 38.288 153.881C37.164 155.005 36.5325 156.529 36.5325 158.119C36.5325 159.708 37.164 161.233 38.288 162.357C39.412 163.481 40.9365 164.112 42.5261 164.112H190.368C191.958 164.112 193.482 163.481 194.606 162.357C195.731 161.233 196.362 159.708 196.362 158.119C196.362 156.529 195.731 155.005 194.606 153.881C193.482 152.757 191.958 152.125 190.368 152.125H42.5261Z" fill="#3A384A"/>
<path d="M131.411 50.6923H130.269V6.7146H212.842V7.85624H131.411V50.6923Z" fill="#9AC450"/>
<path d="M216.371 13.6379C220.137 13.6379 223.19 10.585 223.19 6.81895C223.19 3.05295 220.137 0 216.371 0C212.605 0 209.552 3.05295 209.552 6.81895C209.552 10.585 212.605 13.6379 216.371 13.6379Z" fill="#0A4E04"/>
<path d="M91.7798 104.349H92.9214V79.2086H10.3484V80.3503H91.7798V104.349Z" fill="#9AC450"/>
<path d="M6.81895 86.132C10.585 86.132 13.6379 83.0791 13.6379 79.3131C13.6379 75.5471 10.585 72.4941 6.81895 72.4941C3.05295 72.4941 0 75.5471 0 79.3131C0 83.0791 3.05295 86.132 6.81895 86.132Z" fill="#0A4E04"/>
<path d="M169.085 159.944H167.943V191.364H237.958V190.222H169.085V159.944Z" fill="#9AC450"/>
<path d="M241.488 198.078C245.254 198.078 248.307 195.025 248.307 191.259C248.307 187.493 245.254 184.44 241.488 184.44C237.722 184.44 234.669 187.493 234.669 191.259C234.669 195.025 237.722 198.078 241.488 198.078Z" fill="#0A4E04"/>
<path d="M399.32 341.047L244.2 341.223C244.111 341.223 244.022 341.206 243.939 341.172C243.857 341.138 243.782 341.088 243.718 341.024C243.655 340.961 243.605 340.886 243.57 340.804C243.536 340.721 243.519 340.632 243.519 340.543C243.519 340.454 243.536 340.365 243.57 340.283C243.605 340.2 243.655 340.125 243.718 340.062C243.782 339.999 243.857 339.949 243.939 339.915C244.022 339.881 244.111 339.863 244.2 339.863L399.32 339.688C399.501 339.688 399.674 339.76 399.801 339.887C399.928 340.015 400 340.187 400 340.368C400 340.548 399.928 340.721 399.801 340.848C399.674 340.976 399.501 341.047 399.32 341.047Z" fill="#0A4E04"/>
<path d="M336.829 101.324C336.473 100.766 335.914 100.369 335.27 100.216C334.626 100.063 333.948 100.167 333.38 100.506C334.219 99.3402 333.587 97.3474 332.271 96.542C330.781 95.6294 328.899 95.7806 327.161 95.962L312.915 97.45C311.273 97.6215 309.585 97.8064 308.122 98.5742C306.66 99.3421 305.457 100.84 305.542 102.49C304.425 102.08 303.233 101.918 302.048 102.016C300.876 102.2 299.722 103.056 299.597 104.235C299.396 106.127 301.644 107.219 303.474 107.738C306.872 108.701 310.271 109.664 313.669 110.627L312.621 110.851C319.309 111.435 326.041 110.461 332.289 108.006C333.721 107.441 335.171 106.765 336.173 105.597C337.176 104.43 337.613 102.648 336.829 101.324Z" fill="#E6E6E6"/>
</g>
<defs>
<clipPath id="clip0_12_129">
<rect width="400" height="341.223" fill="white"/>
</clipPath>
</defs>
</svg>
